<?xml version="1.0" encoding="utf-8"?>
<?xml-stylesheet type="text/xsl" href="rss1.xsl"?>
<rss version="2.0" xmlns:atom="http://www.w3.org/2005/Atom" xmlns:content="http://purl.org/rss/1.0/modules/content/" xmlns:dc="http://purl.org/dc/elements/1.1/" xmlns:media="http://search.yahoo.com/mrss/">
<channel>
 <title>Getty</title>
 <link>http://www.gettyimg.com/</link>
 <atom:link href="http://www.gettyimg.com/" rel="self" type="application/rss+xml" />

 
                <item>
                <title><![CDATA[【MASTER &amp; MASTER RIP】MASTER - Thalia – Bebé, Perdón (MasterRip Clean AVC 2160p) – 2023]]></title>
                <link><![CDATA[https://sharemania.us/threads/thalia-%E2%80%93-beb%C3%A9-perd%C3%B3n-masterrip-clean-avc-2160p-%E2%80%93-2023.229926/]]></link>
                <description><![CDATA[<article>
<blockquote class="messageText SelectQuoteContainer ugc baseHtml">
<div style="text-align: center"><span style="font-family: 'Times New Roman'"><img src="https://i.imgur.com/PauNE7y.jpg" class="bbCodeImage LbImage" alt="[​IMG]" data-url="https://i.imgur.com/PauNE7y.jpg" style=""><span style="font-size: 15px"> <br>
</span></span>​</div>
<div class="ToggleTriggerAnchor bbCodeSpoilerContainer">
<button type="button" class="button bbCodeSpoilerButton ToggleTrigger Tooltip JsOnly" data-target="> .SpoilerTarget"><span>Spoiler: <span class="SpoilerTitle">MediaInfo</span></span></button>
<div class="SpoilerTarget bbCodeSpoilerText"><span style="font-family: 'Times New Roman'"><span style="font-size: 15px">General<br>
Complete name : C:\Users\user\Desktop\Thalia – Bebé, Perdón (MasterRip Clean AVC 2160p) – 2023.mp4<br>
Format : MPEG-4<br>
Format profile : Base Media / Version 2<br>
Codec ID : mp42 (mp42/mp41)<br>
File size : 1.26 GiB<br>
Duration : 3 min 28 s<br>
Overall bit rate mode : Variable<br>
Overall bit rate : 51.7 Mb/s<br>
Encoded date : UTC 2023-10-07 08:05:56<br>
Tagged date : UTC 2023-10-07 08:06:13<br>
TIM : 00:00:00:00<br>
TSC : 24000<br>
TSZ : 1001<br>
<br>
Video<br>
ID : 1<br>
Format : AVC<br>
Format/Info : Advanced Video Codec<br>
Format profile : High@L5.1<br>
Format settings : CABAC / 1 Ref Frames<br>
Format settings, CABAC : Yes<br>
Format settings, Reference frames : 1 frame<br>
Format settings, GOP : M=1, N=30<br>
Codec ID : avc1<br>
Codec ID/Info : Advanced Video Coding<br>
Duration : 3 min 28 s<br>
Bit rate : 51.4 Mb/s<br>
Width : 3 840 pixels<br>
Height : 2 160 pixels<br>
Display aspect ratio : 16:9<br>
Frame rate mode : Constant<br>
Frame rate : 23.976 (24000/1001) FPS<br>
Color space : YUV<br>
Chroma subsampling : 4:2:0<br>
Bit depth : 8 bits<br>
Scan type : Progressive<br>
Bits/(Pixel*Frame) : 0.258<br>
Stream size : 1.25 GiB (99%)<br>
Language : English<br>
Encoded date : UTC 2023-10-07 08:05:56<br>
Tagged date : UTC 2023-10-07 08:05:56<br>
Codec configuration box : avcC<br>
<br>
Audio<br>
ID : 2<br>
Format : AAC LC<br>
Format/Info : Advanced Audio Codec Low Complexity<br>
Codec ID : mp4a-40-2<br>
Duration : 3 min 28 s<br>
Source duration : 3 min 29 s<br>
Bit rate mode : Variable<br>
Bit rate : 317 kb/s<br>
Maximum bit rate : 410 kb/s<br>
Channel(s) : 2 channels<br>
Channel layout : L R<br>
Sampling rate : 48.0 kHz<br>
Frame rate : 46.875 FPS (1024 SPF)<br>
Compression mode : Lossy<br>
Stream size : 7.91 MiB (1%)<br>
Source stream size : 7.91 MiB (1%)<br>
Language : English<br>
Encoded date : UTC 2023-10-07 08:05:56<br>
Tagged date : UTC 2023-10-07 08:05:56<br>
<br>
<br>
</span></span></div>
</div><br>
<div style="text-align: center"><span style="font-family: 'Times New Roman'"><br>
<div class="bbCodeBlock bbCodeVfcHH HiddenContent">
<div class="attribution type">Hidden Content:</div>
<blockquote>You must either reply or click 'Like' to see the hidden information contained here.</blockquote>
</div></span>​</div>
<div class="messageTextEndMarker">&nbsp;</div>
</blockquote>
</article>]]></description>
                <author><![CDATA[mariellisaa]]></author>
                </item>

                
                <item>
                <title><![CDATA[【Requests】[REQ AUD] - Now! That's What I Call Music! 79 UK (2011) FLAC]]></title>
                <link><![CDATA[https://sharemania.us/threads/now-thats-what-i-call-music-79-uk-2011-flac.229927/]]></link>
                <description><![CDATA[<article>
<blockquote class="messageText SelectQuoteContainer ugc baseHtml">
<a href="https://www.discogs.com/pt_BR/release/3028347-Various-Now-Thats-What-I-Call-Music-79" target="_blank" class="externalLink" rel="nofollow">https://www.discogs.com/pt_BR/release/3028347-Various-Now-Thats-What-I-Call-Music-79</a>
<div class="messageTextEndMarker">&nbsp;</div>
</blockquote>
</article>]]></description>
                <author><![CDATA[Robert Forever]]></author>
                </item>

                </channel></rss>